<?xml version="1.0" standalone="no"?>
<!DOCTYPE svg PUBLIC "-//W3C//DTD SVG 20010904//EN"
 "http://www.w3.org/TR/2001/REC-SVG-20010904/DTD/svg10.dtd">
<svg version="1.0" xmlns="http://www.w3.org/2000/svg"
 width="700.000000pt" height="700.000000pt" viewBox="0 0 700.000000 700.000000"
 preserveAspectRatio="xMidYMid meet">
<metadata>
Created by potrace 1.14, written by Peter Selinger 2001-2017
</metadata>
<g transform="translate(0.000000,700.000000) scale(0.100000,-0.100000)"
fill="#000000" stroke="none">
<path d="M3365 6987 c-76 -16 -204 -76 -265 -124 -112 -90 -179 -188 -226
-331 l-31 -94 -259 -132 c-142 -73 -421 -215 -619 -316 -198 -101 -484 -247
-636 -324 l-276 -140 -34 25 c-128 94 -327 131 -504 94 -181 -38 -361 -178
-442 -345 -54 -111 -73 -200 -68 -315 5 -131 23 -197 80 -300 81 -144 244
-274 388 -309 23 -6 27 -11 27 -44 0 -41 0 -1422 0 -1593 l0 -107 -52 -17
c-210 -67 -382 -259 -434 -482 -13 -55 -11 -225 3 -286 22 -99 86 -217 160
-297 225 -243 595 -279 865 -84 26 19 52 34 56 34 5 0 80 -39 168 -86 245
-132 293 -158 379 -204 44 -23 103 -55 130 -70 28 -15 79 -43 115 -62 225
-121 546 -294 645 -348 110 -60 308 -165 312 -165 1 0 4 -15 8 -33 3 -17 16
-61 29 -97 60 -166 177 -294 337 -370 99 -46 192 -65 304 -60 246 10 451 142
562 360 24 48 56 141 57 169 1 17 33 37 146 95 80 40 332 168 560 283 228 116
569 289 758 385 l343 174 27 -19 c134 -95 331 -133 502 -98 204 42 390 197
468 389 13 32 25 66 27 75 2 10 8 36 13 60 6 23 10 76 10 117 0 276 -175 523
-438 618 l-61 22 0 864 c0 475 1 864 3 865 2 1 35 15 75 30 147 56 279 174
346 309 34 68 49 106 45 117 -1 3 4 16 11 29 22 40 22 229 0 314 -47 183 -176
345 -339 426 -113 55 -207 74 -335 68 -132 -7 -235 -43 -346 -122 l-46 -33
-119 65 c-130 70 -286 153 -464 246 -63 33 -135 71 -160 85 -25 14 -58 32 -75
40 -16 9 -86 45 -155 82 -168 90 -427 228 -580 308 -193 101 -213 114 -217
142 -2 14 -12 53 -24 86 -64 196 -233 357 -439 418 -73 22 -239 28 -315 13z
m285 -333 c132 -67 203 -187 194 -333 -5 -88 -44 -170 -111 -231 -173 -158
-440 -106 -545 107 -29 59 -32 75 -31 148 1 142 66 245 193 309 62 30 78 34
150 34 73 0 88 -4 150 -34z m-726 -620 c67 -131 206 -252 348 -304 35 -13 65
-25 68 -28 3 -2 5 -326 5 -720 l0 -717 -253 -127 c-140 -70 -257 -126 -261
-124 -3 2 -116 70 -251 151 -135 82 -258 156 -275 165 -16 10 -246 147 -510
305 -264 159 -481 289 -482 289 -1 1 -3 41 -4 89 -2 93 -16 167 -42 230 l-16
37 82 41 c45 23 177 90 292 149 116 59 352 180 525 268 173 88 407 207 520
265 113 59 207 106 210 107 3 0 23 -34 44 -76z m1466 -71 c30 -17 100 -54 155
-83 178 -94 269 -142 320 -170 28 -15 104 -56 170 -90 66 -34 134 -70 150 -80
17 -9 73 -40 125 -67 52 -28 145 -77 205 -109 61 -32 131 -69 157 -82 27 -13
50 -28 53 -32 3 -5 -3 -39 -13 -77 -11 -38 -20 -107 -21 -158 -1 -49 -3 -90
-4 -91 -1 0 -345 -206 -763 -457 l-762 -457 -253 128 -254 127 0 718 0 718 80
32 c149 60 270 167 340 300 l40 76 110 -58 c61 -32 135 -72 165 -88z m-3595
-640 c103 -44 178 -139 201 -253 9 -45 10 -68 2 -117 -18 -113 -93 -213 -197
-262 -47 -22 -70 -26 -146 -26 -78 0 -97 4 -145 27 -72 36 -133 96 -167 166
-24 50 -28 69 -28 147 0 78 4 98 27 145 85 172 281 247 453 173z m5698 -7 c73
-36 128 -90 164 -164 24 -50 28 -68 28 -147 -1 -77 -5 -98 -27 -145 -35 -71
-95 -132 -166 -167 -50 -24 -69 -28 -147 -28 -76 0 -98 4 -145 26 -212 101
-268 375 -112 551 63 71 159 109 267 106 64 -3 91 -9 138 -32z m-4844 -952
c234 -141 442 -266 462 -278 20 -11 155 -92 301 -180 l264 -158 0 -248 0 -247
-739 -444 -739 -443 -20 24 c-11 14 -28 34 -37 45 -52 66 -195 157 -288 185
l-43 13 0 868 0 868 42 12 c99 26 232 114 303 200 23 29 46 47 54 44 7 -3 205
-120 440 -261z m4232 183 c86 -85 181 -144 267 -166 l42 -12 0 -868 0 -869
-52 -17 c-97 -31 -171 -78 -257 -163 l-85 -82 -145 87 c-80 48 -155 93 -166
99 -11 6 -141 84 -290 174 -148 89 -286 172 -306 184 -20 11 -155 92 -301 180
l-265 159 1 250 c1 157 5 252 11 254 6 2 336 199 735 438 399 239 725 435 726
435 0 0 39 -37 85 -83z m-2121 -680 c129 -65 239 -123 245 -128 6 -6 10 -104
10 -244 l0 -233 -252 -126 c-138 -69 -257 -126 -264 -126 -12 0 -484 234 -504
251 -12 9 -13 464 -2 476 20 21 504 258 517 253 8 -3 121 -58 250 -123z m-645
-1015 l230 -117 0 -720 0 -719 -60 -21 c-153 -54 -290 -172 -361 -308 l-38
-75 -76 40 c-41 23 -97 53 -125 68 -48 26 -76 41 -245 132 -124 67 -189 102
-315 170 -66 36 -160 86 -210 113 -49 26 -114 61 -142 76 -90 49 -155 84 -243
132 -139 75 -224 121 -242 132 -16 10 -16 14 -2 60 9 28 18 97 21 155 l6 105
246 148 c135 81 257 154 271 162 14 9 245 148 514 309 440 264 492 293 515
284 14 -5 130 -62 256 -126z m1459 -108 c226 -136 422 -254 436 -263 14 -9
172 -104 352 -211 l327 -195 1 -81 c0 -79 32 -236 53 -262 5 -7 8 -14 6 -16
-2 -2 -155 -80 -339 -173 -971 -493 -1292 -654 -1294 -651 -2 1 -20 35 -40 75
-42 80 -134 183 -211 234 -27 18 -86 48 -130 66 l-80 32 0 718 0 718 250 127
c138 69 252 127 254 127 1 1 188 -110 415 -245z m-3766 -438 c63 -32 126 -94
157 -156 24 -47 44 -132 39 -166 -16 -113 -38 -165 -98 -228 -167 -176 -455
-129 -563 92 -34 69 -42 167 -19 244 30 103 125 200 230 235 66 21 191 11 254
-21z m5684 1 c161 -79 237 -264 177 -430 -58 -159 -235 -259 -395 -222 -274
63 -370 393 -172 586 77 75 142 99 254 95 64 -2 93 -8 136 -29z m-2868 -1327
c60 -23 136 -85 170 -139 70 -112 67 -268 -7 -377 -165 -246 -546 -182 -622
104 -12 46 -12 127 -1 180 18 85 117 194 208 230 72 28 179 29 252 2z"/>
</g>
</svg>
